FILE "stream.wav" WAVE
  TRACK 01 AUDIO
    FLAGS DCP
    INDEX 01 00:00:00
  TRACK 02 AUDIO
    FLAGS 4CH PRE
    INDEX 01 00:00:01
  TRACK 03 AUDIO
    FLAGS DCP 4CH  PRE SCMS  DATA
    INDEX 01 00:00:02
  TRACK 04 AUDIO
    FLAGS  
    INDEX 01 00:00:03
